<?xml version="1.0" standalone="no"?>
<!DOCTYPE svg PUBLIC "-//W3C//DTD SVG 20010904//EN"
 "http://www.w3.org/TR/2001/REC-SVG-20010904/DTD/svg10.dtd">
<svg version="1.0" xmlns="http://www.w3.org/2000/svg"
 width="500.000000pt" height="500.000000pt" viewBox="0 0 500.000000 500.000000"
 preserveAspectRatio="xMidYMid meet">

<g transform="translate(0.000000,500.000000) scale(0.100000,-0.100000)"
fill="#000000" stroke="none">
<path d="M910 4323 c0 -21 28 -56 128 -157 121 -123 132 -138 190 -253 l62
-122 -2 -1349 -3 -1348 -30 -59 c-42 -83 -79 -105 -252 -155 -69 -20 -73 -22
-73 -50 l0 -30 410 0 410 0 0 29 c0 28 -4 31 -92 60 -177 60 -210 95 -228 251
-7 55 -10 511 -8 1274 l3 1189 1023 -1407 1024 -1406 154 0 154 0 0 484 0 485
-77 94 c-43 52 -474 635 -958 1296 l-880 1201 -477 0 -478 0 0 -27z"/>
<path d="M3292 4323 c3 -25 10 -29 128 -63 69 -20 143 -45 165 -57 71 -37 155
-140 179 -220 l7 -22 -61 20 c-114 39 -119 8 -14 -98 85 -87 82 -100 -14 -62
-81 31 -272 129 -372 190 -47 28 -97 59 -112 68 -40 24 -48 3 -10 -29 38 -31
351 -208 427 -240 61 -26 76 -39 131 -115 66 -90 60 -94 -58 -38 -43 20 -81
33 -85 30 -3 -4 0 -18 7 -32 10 -20 11 -28 2 -37 -29 -29 -13 -67 51 -131 59
-58 127 -149 127 -169 0 -12 -33 -2 -102 33 -52 26 -88 36 -88 24 0 -2 5 -16
12 -30 9 -19 9 -28 0 -37 -23 -23 -13 -60 27 -99 24 -24 47 -62 61 -101 l22
-62 -28 -23 c-16 -13 -34 -23 -41 -23 -27 0 -77 99 -59 117 3 4 18 1 32 -6 31
-14 42 -8 24 14 -8 9 -25 15 -39 13 -22 -3 -26 -9 -29 -38 -3 -45 35 -114 66
-118 12 -2 32 4 44 12 36 25 51 19 85 -34 44 -67 113 -84 113 -27 0 30 -43 71
-102 96 -48 20 -59 34 -83 100 l-13 39 35 -10 c82 -23 84 20 3 95 -33 31 -60
61 -60 66 0 6 -6 11 -14 11 -14 0 -42 27 -35 35 3 2 35 -12 73 -31 129 -65
146 -40 56 81 l-37 50 38 -3 c63 -6 53 28 -30 107 -39 36 -78 71 -88 77 -10 7
-15 15 -11 19 4 4 35 -7 70 -23 86 -42 107 -47 114 -28 6 15 -50 111 -79 135
-26 21 -20 27 19 23 65 -8 60 15 -21 99 -70 72 -91 105 -62 97 6 -2 38 -12 70
-23 109 -36 148 10 88 106 -24 39 -28 54 -21 77 20 71 62 103 188 143 67 21
72 25 72 51 l0 28 -386 0 -385 0 3 -27z m534 -299 c18 -43 18 -60 -1 -68 -29
-11 -45 5 -45 44 0 76 20 86 46 24z m-102 -477 c85 -80 73 -103 -23 -44 -57
35 -88 75 -78 101 9 23 29 11 101 -57z m-37 -273 c51 -42 93 -85 93 -96 0 -29
-112 29 -144 73 -19 27 -21 59 -5 59 7 0 32 -16 56 -36z m142 -280 c48 -28 64
-74 26 -74 -13 0 -75 67 -75 82 0 13 20 9 49 -8z"/>
<path d="M3456 3219 c-3 -17 -6 -67 -6 -110 0 -44 -4 -79 -9 -79 -5 0 -32 16
-60 35 -28 19 -56 35 -62 35 -24 0 1 -27 64 -69 l67 -44 0 -174 c0 -95 3 -173
8 -173 4 0 5 74 3 165 -2 134 0 165 10 165 21 0 203 -81 211 -94 4 -6 8 -26 8
-43 0 -31 -2 -33 -34 -33 -35 0 -66 -21 -66 -45 0 -13 59 -70 81 -77 22 -7 2
-55 -26 -62 -14 -4 -25 -10 -25 -15 0 -5 25 -27 55 -50 53 -40 83 -77 71 -88
-3 -3 -43 4 -88 15 -46 12 -87 17 -91 13 -11 -11 -4 -15 77 -40 81 -25 109
-26 126 -6 10 12 1 26 -53 82 l-65 68 19 24 c10 13 19 29 19 36 0 8 9 10 25 7
84 -16 100 36 30 95 -40 33 -45 42 -45 79 l0 42 48 -18 c59 -22 189 -50 236
-50 36 0 71 24 60 41 -3 6 -11 3 -18 -7 -30 -40 -230 10 -444 111 l-115 55 5
120 c5 115 -2 155 -16 89z m209 -459 c-3 -5 -15 -10 -26 -10 -11 0 -17 5 -14
10 3 6 15 10 26 10 11 0 17 -4 14 -10z m97 -44 c10 -11 18 -24 18 -28 0 -16
-62 -7 -101 13 l-41 20 22 24 c22 23 24 23 54 8 17 -8 39 -25 48 -37z"/>
<path d="M3288 2480 c-10 -6 -18 -17 -18 -25 0 -22 86 -91 242 -195 l143 -95
3 -45 c4 -62 22 -150 31 -150 4 0 20 14 36 30 16 17 46 35 66 41 34 11 44 8
129 -31 62 -28 95 -39 102 -32 7 7 -38 34 -136 83 -182 91 -207 110 -209 164
-1 22 2 58 6 80 7 32 6 38 -4 28 -7 -7 -15 -42 -18 -78 l-6 -65 -135 90 c-74
49 -157 110 -185 135 l-50 46 65 -5 c37 -3 129 -25 210 -50 238 -75 391 -118
397 -112 4 3 4 8 2 10 -8 7 -405 135 -479 154 -102 27 -171 34 -192 22z m465
-374 l66 -40 -35 -12 c-20 -7 -47 -23 -60 -35 -21 -20 -26 -21 -34 -9 -5 8
-10 26 -10 40 0 14 -3 42 -7 64 -7 44 -10 45 80 -8z"/>
</g>
</svg>
